<svg xmlns="http://www.w3.org/2000/svg" width="1200" height="900" viewBox="0 0 1200 900" role="img" aria-labelledby="title desc">
  <title id="title">Panorama 360</title>
  <desc id="desc">Image de demonstration pour un panorama 360</desc>
  <rect width="1200" height="900" fill="#d8efe9"/>
  <path d="M0 535 120 450l160 80 190-180 210 190 140-130 160 145 220-155v500H0Z" fill="#487e75"/>
  <path d="M0 655c155-45 300-54 435-25 110 24 203 66 318 58 130-10 238-74 447-50v262H0Z" fill="#f0f4ea"/>
  <path d="M487 358c142-76 292-77 450-4l-33 66c-131-58-254-58-372 2l67 32-164 78 20-180Z" fill="#d97706"/>
  <path d="M712 530H900v55H712z" fill="#d97706"/>
</svg>
